<?xml version="1.0" encoding="UTF-8"?><svg id="uuid-94088d91-00b9-4565-9026-b09ba6a0e766" xmlns="http://www.w3.org/2000/svg" viewBox="0 0 85 48"><path d="m45.26,24c0,5.2-1.01,9.59-3.02,13.16-2.01,3.56-4.73,6.26-8.16,8.1-3.42,1.82-7.24,2.74-11.45,2.74s-8.07-.92-11.5-2.76c-3.41-1.86-6.12-4.56-8.13-8.12-2-3.57-3-7.95-3-13.12s1-9.58,3-13.14c2.01-3.57,4.73-6.27,8.13-8.1,3.42-1.84,7.26-2.76,11.5-2.76s8.03.92,11.45,2.76c3.42,1.83,6.14,4.52,8.16,8.1,2.01,3.56,3.02,7.94,3.02,13.14Zm-13,0c0-2.8-.37-5.16-1.11-7.07-.73-1.93-1.81-3.39-3.25-4.38-1.42-1-3.18-1.51-5.27-1.51s-3.85.5-5.29,1.51c-1.42.99-2.51,2.45-3.25,4.38-.73,1.92-1.09,4.27-1.09,7.07s.36,5.16,1.09,7.1c.74,1.92,1.83,3.38,3.25,4.38,1.44.99,3.2,1.48,5.29,1.48s3.85-.49,5.27-1.48c1.44-1,2.52-2.46,3.25-4.38.74-1.93,1.11-4.3,1.11-7.1Z" fill="#fff" stroke-width="0"/><path d="m85,24c0,5.2-1.01,9.59-3.02,13.16-2.01,3.56-4.73,6.26-8.16,8.1-3.42,1.82-7.24,2.74-11.45,2.74s-8.07-.92-11.5-2.76c-3.41-1.86-6.12-4.56-8.13-8.12-2-3.57-3-7.95-3-13.12s1-9.58,3-13.14c2.01-3.57,4.73-6.27,8.13-8.1,3.42-1.84,7.26-2.76,11.5-2.76s8.03.92,11.45,2.76c3.42,1.83,6.14,4.52,8.16,8.1,2.01,3.56,3.02,7.94,3.02,13.14Zm-13,0c0-2.8-.37-5.16-1.11-7.07-.73-1.93-1.81-3.39-3.25-4.38-1.42-1-3.18-1.51-5.27-1.51s-3.85.5-5.29,1.51c-1.42.99-2.51,2.45-3.25,4.38-.73,1.92-1.09,4.27-1.09,7.07s.36,5.16,1.09,7.1c.74,1.92,1.83,3.38,3.25,4.38,1.44.99,3.2,1.48,5.29,1.48s3.85-.49,5.27-1.48c1.44-1,2.52-2.46,3.25-4.38.74-1.93,1.11-4.3,1.11-7.1Z" fill="#fff" stroke-width="0"/></svg>