<!-- sample rectangle -->
<svg width="85" height="48" viewBox="0 0 85 48" fill="none" xmlns="http://www.w3.org/2000/svg">
<path d="M45.2576 24C45.2576 29.2015 44.2504 33.5894 42.2359 37.1635C40.2214 40.7224 37.5026 43.4221 34.0795 45.2624C30.6564 47.0874 26.8395 48 22.6288 48C18.3878 48 14.5557 47.0798 11.1326 45.2395C7.72469 43.384 5.01348 40.6768 2.999 37.1179C0.999666 33.5437 0 29.1711 0 24C0 18.7985 0.999666 14.4183 2.999 10.8593C5.01348 7.28517 7.72469 4.58555 11.1326 2.76046C14.5557 0.920152 18.3878 0 22.6288 0C26.8395 0 30.6564 0.920152 34.0795 2.76046C37.5026 4.58555 40.2214 7.28517 42.2359 10.8593C44.2504 14.4183 45.2576 18.7985 45.2576 24ZM32.2619 24C32.2619 21.2015 31.8909 18.8441 31.1487 16.9278C30.4216 14.9962 29.3387 13.5361 27.8998 12.5475C26.476 11.5437 24.719 11.0418 22.6288 11.0418C20.5386 11.0418 18.774 11.5437 17.3351 12.5475C15.9113 13.5361 14.8284 14.9962 14.0862 16.9278C13.3592 18.8441 12.9957 21.2015 12.9957 24C12.9957 26.7985 13.3592 29.1635 14.0862 31.0951C14.8284 33.0114 15.9113 34.4715 17.3351 35.4753C18.774 36.4639 20.5386 36.9582 22.6288 36.9582C24.719 36.9582 26.476 36.4639 27.8998 35.4753C29.3387 34.4715 30.4216 33.0114 31.1487 31.0951C31.8909 29.1635 32.2619 26.7985 32.2619 24Z" fill="black"/>
<path d="M85 24C85 29.2015 83.9928 33.5894 81.9783 37.1635C79.9638 40.7224 77.245 43.4221 73.8219 45.2624C70.3988 47.0874 66.5819 48 62.3712 48C58.1302 48 54.2981 47.0798 50.875 45.2395C47.4671 43.384 44.7559 40.6768 42.7414 37.1179C40.7421 33.5437 39.7424 29.1711 39.7424 24C39.7424 18.7985 40.7421 14.4183 42.7414 10.8593C44.7559 7.28517 47.4671 4.58555 50.875 2.76046C54.2981 0.920152 58.1302 0 62.3712 0C66.5819 0 70.3988 0.920152 73.8219 2.76046C77.245 4.58555 79.9638 7.28517 81.9783 10.8593C83.9928 14.4183 85 18.7985 85 24ZM72.0043 24C72.0043 21.2015 71.6333 18.8441 70.8911 16.9278C70.164 14.9962 69.0811 13.5361 67.6422 12.5475C66.2184 11.5437 64.4614 11.0418 62.3712 11.0418C60.281 11.0418 58.5164 11.5437 57.0775 12.5475C55.6537 13.5361 54.5708 14.9962 53.8286 16.9278C53.1016 18.8441 52.7381 21.2015 52.7381 24C52.7381 26.7985 53.1016 29.1635 53.8286 31.0951C54.5708 33.0114 55.6537 34.4715 57.0775 35.4753C58.5164 36.4639 60.281 36.9582 62.3712 36.9582C64.4614 36.9582 66.2184 36.4639 67.6422 35.4753C69.0811 34.4715 70.164 33.0114 70.8911 31.0951C71.6333 29.1635 72.0043 26.7985 72.0043 24Z" fill="black"/>
</svg>